<mxfile host="app.diagrams.net" agent="Mozilla/5.0 (Windows NT 10.0; Win64; x64) AppleWebKit/537.36 (KHTML, like Gecko) Chrome/135.0.0.0 Safari/537.36 Edg/135.0.0.0" version="26.2.14">
  <diagram name="Page-1" id="e7e014a7-5840-1c2e-5031-d8a46d1fe8dd">
    <mxGraphModel dx="1773" dy="940" grid="1" gridSize="10" guides="1" tooltips="1" connect="1" arrows="1" fold="1" page="1" pageScale="1" pageWidth="1169" pageHeight="826" background="none" math="0" shadow="0">
      <root>
        <mxCell id="0" />
        <mxCell id="1" parent="0" />
        <mxCell id="lpRA6bZeh-dXRlE1xvE8-41" value="" style="ellipse;html=1;shape=startState;fillColor=#000000;strokeColor=#ff0000;" vertex="1" parent="1">
          <mxGeometry x="80" y="106" width="30" height="30" as="geometry" />
        </mxCell>
        <mxCell id="lpRA6bZeh-dXRlE1xvE8-42" value="" style="edgeStyle=orthogonalEdgeStyle;html=1;verticalAlign=bottom;endArrow=open;endSize=8;strokeColor=#ff0000;rounded=0;entryX=0;entryY=0.5;entryDx=0;entryDy=0;" edge="1" source="lpRA6bZeh-dXRlE1xvE8-41" parent="1" target="lpRA6bZeh-dXRlE1xvE8-45">
          <mxGeometry relative="1" as="geometry">
            <mxPoint x="260" y="86" as="targetPoint" />
          </mxGeometry>
        </mxCell>
        <mxCell id="lpRA6bZeh-dXRlE1xvE8-43" value="" style="ellipse;html=1;shape=startState;fillColor=#000000;strokeColor=#ff0000;" vertex="1" parent="1">
          <mxGeometry x="245" y="206" width="30" height="30" as="geometry" />
        </mxCell>
        <mxCell id="lpRA6bZeh-dXRlE1xvE8-44" value="" style="edgeStyle=orthogonalEdgeStyle;html=1;verticalAlign=bottom;endArrow=open;endSize=8;strokeColor=#ff0000;rounded=0;entryX=0.077;entryY=0.273;entryDx=0;entryDy=0;entryPerimeter=0;" edge="1" source="lpRA6bZeh-dXRlE1xvE8-43" parent="1" target="lpRA6bZeh-dXRlE1xvE8-91">
          <mxGeometry relative="1" as="geometry">
            <mxPoint x="330" y="270" as="targetPoint" />
            <Array as="points" />
          </mxGeometry>
        </mxCell>
        <mxCell id="lpRA6bZeh-dXRlE1xvE8-45" value="start time?" style="rhombus;whiteSpace=wrap;html=1;fontColor=#000000;fillColor=#ffffc0;strokeColor=#ff0000;" vertex="1" parent="1">
          <mxGeometry x="190" y="86" width="140" height="70" as="geometry" />
        </mxCell>
        <mxCell id="lpRA6bZeh-dXRlE1xvE8-46" value="no" style="edgeStyle=orthogonalEdgeStyle;html=1;align=left;verticalAlign=bottom;endArrow=open;endSize=8;strokeColor=#ff0000;rounded=0;entryX=0;entryY=0.5;entryDx=0;entryDy=0;exitX=0.5;exitY=0;exitDx=0;exitDy=0;elbow=horizontal;curved=0;" edge="1" source="lpRA6bZeh-dXRlE1xvE8-45" parent="1" target="lpRA6bZeh-dXRlE1xvE8-58">
          <mxGeometry x="-0.4512" y="-16" relative="1" as="geometry">
            <mxPoint x="400" y="106" as="targetPoint" />
            <mxPoint x="320" y="106" as="sourcePoint" />
            <Array as="points">
              <mxPoint x="260" y="56" />
            </Array>
            <mxPoint as="offset" />
          </mxGeometry>
        </mxCell>
        <mxCell id="lpRA6bZeh-dXRlE1xvE8-47" value="yes" style="edgeStyle=orthogonalEdgeStyle;html=1;align=left;verticalAlign=top;endArrow=open;endSize=8;strokeColor=#ff0000;rounded=0;entryX=0.5;entryY=0;entryDx=0;entryDy=0;" edge="1" source="lpRA6bZeh-dXRlE1xvE8-54" parent="1" target="lpRA6bZeh-dXRlE1xvE8-52">
          <mxGeometry x="-1" relative="1" as="geometry">
            <mxPoint x="600" y="216" as="targetPoint" />
          </mxGeometry>
        </mxCell>
        <mxCell id="lpRA6bZeh-dXRlE1xvE8-50" value="Start Button" style="text;html=1;align=center;verticalAlign=middle;resizable=0;points=[];autosize=1;strokeColor=none;fillColor=none;" vertex="1" parent="1">
          <mxGeometry x="50" y="76" width="90" height="30" as="geometry" />
        </mxCell>
        <mxCell id="lpRA6bZeh-dXRlE1xvE8-51" value="Instant Start" style="text;html=1;align=center;verticalAlign=middle;resizable=0;points=[];autosize=1;strokeColor=none;fillColor=none;" vertex="1" parent="1">
          <mxGeometry x="215" y="186" width="90" height="30" as="geometry" />
        </mxCell>
        <mxCell id="lpRA6bZeh-dXRlE1xvE8-52" value="Heating" style="rounded=1;whiteSpace=wrap;html=1;arcSize=40;fontColor=#000000;fillColor=#ffffc0;strokeColor=#ff0000;" vertex="1" parent="1">
          <mxGeometry x="440" y="266" width="120" height="40" as="geometry" />
        </mxCell>
        <mxCell id="lpRA6bZeh-dXRlE1xvE8-53" value="" style="edgeStyle=orthogonalEdgeStyle;html=1;verticalAlign=bottom;endArrow=open;endSize=8;strokeColor=#ff0000;rounded=0;entryX=0.5;entryY=0;entryDx=0;entryDy=0;" edge="1" source="lpRA6bZeh-dXRlE1xvE8-52" parent="1" target="lpRA6bZeh-dXRlE1xvE8-73">
          <mxGeometry relative="1" as="geometry">
            <mxPoint x="420" y="336" as="targetPoint" />
          </mxGeometry>
        </mxCell>
        <mxCell id="lpRA6bZeh-dXRlE1xvE8-57" value="" style="edgeStyle=orthogonalEdgeStyle;html=1;align=left;verticalAlign=top;endArrow=open;endSize=8;strokeColor=#ff0000;rounded=0;entryX=0.905;entryY=0.109;entryDx=0;entryDy=0;entryPerimeter=0;" edge="1" parent="1" source="lpRA6bZeh-dXRlE1xvE8-45" target="lpRA6bZeh-dXRlE1xvE8-91">
          <mxGeometry x="-1" relative="1" as="geometry">
            <mxPoint x="390" y="140" as="targetPoint" />
            <mxPoint x="620" y="156" as="sourcePoint" />
            <Array as="points" />
          </mxGeometry>
        </mxCell>
        <mxCell id="lpRA6bZeh-dXRlE1xvE8-81" value="yes" style="edgeLabel;html=1;align=center;verticalAlign=middle;resizable=0;points=[];" vertex="1" connectable="0" parent="lpRA6bZeh-dXRlE1xvE8-57">
          <mxGeometry x="-0.4375" y="3" relative="1" as="geometry">
            <mxPoint x="-5" y="-2" as="offset" />
          </mxGeometry>
        </mxCell>
        <mxCell id="lpRA6bZeh-dXRlE1xvE8-54" value="Is a start&amp;nbsp;&lt;div&gt;condition met?&lt;/div&gt;" style="rhombus;whiteSpace=wrap;html=1;fontColor=#000000;fillColor=#ffffc0;strokeColor=#ff0000;" vertex="1" parent="1">
          <mxGeometry x="435" y="130" width="130" height="80" as="geometry" />
        </mxCell>
        <mxCell id="lpRA6bZeh-dXRlE1xvE8-58" value="Idle" style="rounded=1;whiteSpace=wrap;html=1;arcSize=40;fontColor=#000000;fillColor=#ffffc0;strokeColor=#ff0000;" vertex="1" parent="1">
          <mxGeometry x="440" y="36" width="120" height="40" as="geometry" />
        </mxCell>
        <mxCell id="lpRA6bZeh-dXRlE1xvE8-59" value="" style="edgeStyle=orthogonalEdgeStyle;html=1;verticalAlign=bottom;endArrow=open;endSize=8;strokeColor=#ff0000;rounded=0;" edge="1" source="lpRA6bZeh-dXRlE1xvE8-58" parent="1">
          <mxGeometry relative="1" as="geometry">
            <mxPoint x="500" y="136" as="targetPoint" />
          </mxGeometry>
        </mxCell>
        <mxCell id="lpRA6bZeh-dXRlE1xvE8-60" value="check start conditions" style="edgeLabel;html=1;align=center;verticalAlign=middle;resizable=0;points=[];" vertex="1" connectable="0" parent="lpRA6bZeh-dXRlE1xvE8-59">
          <mxGeometry x="-0.4711" y="1" relative="1" as="geometry">
            <mxPoint as="offset" />
          </mxGeometry>
        </mxCell>
        <mxCell id="lpRA6bZeh-dXRlE1xvE8-63" value="no" style="edgeStyle=orthogonalEdgeStyle;html=1;align=left;verticalAlign=bottom;endArrow=open;endSize=8;strokeColor=#ff0000;rounded=0;exitX=1;exitY=0.5;exitDx=0;exitDy=0;elbow=horizontal;curved=0;entryX=1;entryY=0.5;entryDx=0;entryDy=0;" edge="1" parent="1" source="lpRA6bZeh-dXRlE1xvE8-54" target="lpRA6bZeh-dXRlE1xvE8-58">
          <mxGeometry x="0.3539" y="15" relative="1" as="geometry">
            <mxPoint x="700" y="106" as="targetPoint" />
            <mxPoint x="740" y="191" as="sourcePoint" />
            <Array as="points">
              <mxPoint x="600" y="170" />
              <mxPoint x="600" y="56" />
            </Array>
            <mxPoint as="offset" />
          </mxGeometry>
        </mxCell>
        <mxCell id="lpRA6bZeh-dXRlE1xvE8-71" value="yes" style="edgeStyle=orthogonalEdgeStyle;html=1;align=left;verticalAlign=top;endArrow=open;endSize=8;strokeColor=#ff0000;rounded=0;entryX=0.5;entryY=0;entryDx=0;entryDy=0;" edge="1" parent="1" source="lpRA6bZeh-dXRlE1xvE8-73" target="lpRA6bZeh-dXRlE1xvE8-72">
          <mxGeometry x="-1" relative="1" as="geometry">
            <mxPoint x="600" y="446" as="targetPoint" />
          </mxGeometry>
        </mxCell>
        <mxCell id="lpRA6bZeh-dXRlE1xvE8-72" value="Holding_Temperature" style="rounded=1;whiteSpace=wrap;html=1;arcSize=40;fontColor=#000000;fillColor=#ffffc0;strokeColor=#ff0000;" vertex="1" parent="1">
          <mxGeometry x="440" y="496" width="120" height="40" as="geometry" />
        </mxCell>
        <mxCell id="lpRA6bZeh-dXRlE1xvE8-73" value="Is the minimal&amp;nbsp;&lt;div&gt;temperature reached?&lt;/div&gt;" style="rhombus;whiteSpace=wrap;html=1;fontColor=#000000;fillColor=#ffffc0;strokeColor=#ff0000;" vertex="1" parent="1">
          <mxGeometry x="422.5" y="356" width="155" height="110" as="geometry" />
        </mxCell>
        <mxCell id="lpRA6bZeh-dXRlE1xvE8-76" value="no" style="edgeStyle=orthogonalEdgeStyle;html=1;align=left;verticalAlign=bottom;endArrow=open;endSize=8;strokeColor=#ff0000;rounded=0;exitX=1;exitY=0.5;exitDx=0;exitDy=0;elbow=horizontal;curved=0;entryX=1;entryY=0.5;entryDx=0;entryDy=0;" edge="1" parent="1" source="lpRA6bZeh-dXRlE1xvE8-73" target="lpRA6bZeh-dXRlE1xvE8-52">
          <mxGeometry x="0.3539" y="15" relative="1" as="geometry">
            <mxPoint x="700" y="336" as="targetPoint" />
            <mxPoint x="740" y="421" as="sourcePoint" />
            <Array as="points">
              <mxPoint x="600" y="411" />
              <mxPoint x="600" y="286" />
            </Array>
            <mxPoint as="offset" />
          </mxGeometry>
        </mxCell>
        <mxCell id="lpRA6bZeh-dXRlE1xvE8-77" value="temperature sensor" style="whiteSpace=wrap;html=1;fillColor=#ffffc0;strokeColor=#ff0000;fontColor=#000000;" vertex="1" parent="1">
          <mxGeometry x="205" y="381" width="120" height="60" as="geometry" />
        </mxCell>
        <mxCell id="lpRA6bZeh-dXRlE1xvE8-79" value="temperature data" style="edgeStyle=orthogonalEdgeStyle;html=1;align=left;verticalAlign=top;endArrow=open;endSize=8;strokeColor=#ff0000;rounded=0;entryX=0;entryY=0.5;entryDx=0;entryDy=0;exitX=1;exitY=0.5;exitDx=0;exitDy=0;" edge="1" parent="1" source="lpRA6bZeh-dXRlE1xvE8-77" target="lpRA6bZeh-dXRlE1xvE8-73">
          <mxGeometry x="-0.8974" relative="1" as="geometry">
            <mxPoint x="597" y="276" as="targetPoint" />
            <mxPoint x="597" y="226" as="sourcePoint" />
            <mxPoint as="offset" />
          </mxGeometry>
        </mxCell>
        <mxCell id="lpRA6bZeh-dXRlE1xvE8-83" value="Is the countdown&amp;nbsp;&lt;div&gt;expired?&lt;/div&gt;" style="rhombus;whiteSpace=wrap;html=1;fontColor=#000000;fillColor=#ffffc0;strokeColor=#ff0000;" vertex="1" parent="1">
          <mxGeometry x="422.5" y="586" width="155" height="110" as="geometry" />
        </mxCell>
        <mxCell id="lpRA6bZeh-dXRlE1xvE8-84" value="" style="edgeStyle=orthogonalEdgeStyle;html=1;verticalAlign=bottom;endArrow=open;endSize=8;strokeColor=#ff0000;rounded=0;entryX=0.5;entryY=0;entryDx=0;entryDy=0;exitX=0.5;exitY=1;exitDx=0;exitDy=0;" edge="1" parent="1" source="lpRA6bZeh-dXRlE1xvE8-72" target="lpRA6bZeh-dXRlE1xvE8-83">
          <mxGeometry relative="1" as="geometry">
            <mxPoint x="499.5" y="586" as="targetPoint" />
            <mxPoint x="499.5" y="536" as="sourcePoint" />
          </mxGeometry>
        </mxCell>
        <mxCell id="lpRA6bZeh-dXRlE1xvE8-85" value="start countdown timer" style="edgeLabel;html=1;align=center;verticalAlign=middle;resizable=0;points=[];" vertex="1" connectable="0" parent="lpRA6bZeh-dXRlE1xvE8-84">
          <mxGeometry x="-0.44" y="-2" relative="1" as="geometry">
            <mxPoint as="offset" />
          </mxGeometry>
        </mxCell>
        <mxCell id="lpRA6bZeh-dXRlE1xvE8-86" value="yes" style="edgeStyle=orthogonalEdgeStyle;html=1;align=left;verticalAlign=top;endArrow=open;endSize=8;strokeColor=#ff0000;rounded=0;entryX=0.5;entryY=0;entryDx=0;entryDy=0;exitX=0.5;exitY=1;exitDx=0;exitDy=0;" edge="1" parent="1" target="lpRA6bZeh-dXRlE1xvE8-87" source="lpRA6bZeh-dXRlE1xvE8-83">
          <mxGeometry x="-1" relative="1" as="geometry">
            <mxPoint x="600" y="696" as="targetPoint" />
            <mxPoint x="500" y="716" as="sourcePoint" />
          </mxGeometry>
        </mxCell>
        <mxCell id="lpRA6bZeh-dXRlE1xvE8-87" value="Done" style="rounded=1;whiteSpace=wrap;html=1;arcSize=40;fontColor=#000000;fillColor=#ffffc0;strokeColor=#ff0000;" vertex="1" parent="1">
          <mxGeometry x="440" y="746" width="120" height="40" as="geometry" />
        </mxCell>
        <mxCell id="lpRA6bZeh-dXRlE1xvE8-90" value="" style="edgeStyle=orthogonalEdgeStyle;html=1;align=left;verticalAlign=top;endArrow=open;endSize=8;strokeColor=#ff0000;rounded=0;exitX=0.5;exitY=1;exitDx=0;exitDy=0;entryX=0.5;entryY=0;entryDx=0;entryDy=0;" edge="1" parent="1" source="lpRA6bZeh-dXRlE1xvE8-87" target="lpRA6bZeh-dXRlE1xvE8-58">
          <mxGeometry x="-1" relative="1" as="geometry">
            <mxPoint x="790" y="376" as="targetPoint" />
            <mxPoint x="510" y="706" as="sourcePoint" />
            <Array as="points">
              <mxPoint x="500" y="816" />
              <mxPoint x="630" y="816" />
              <mxPoint x="630" y="20" />
              <mxPoint x="500" y="20" />
            </Array>
          </mxGeometry>
        </mxCell>
        <mxCell id="lpRA6bZeh-dXRlE1xvE8-91" value="" style="shape=line;html=1;strokeWidth=6;strokeColor=#ff0000;direction=north;" vertex="1" parent="1">
          <mxGeometry x="400" y="110" width="10" height="120" as="geometry" />
        </mxCell>
        <mxCell id="lpRA6bZeh-dXRlE1xvE8-92" value="" style="edgeStyle=orthogonalEdgeStyle;html=1;verticalAlign=bottom;endArrow=open;endSize=8;strokeColor=#ff0000;rounded=0;entryX=0;entryY=0.5;entryDx=0;entryDy=0;" edge="1" source="lpRA6bZeh-dXRlE1xvE8-91" parent="1" target="lpRA6bZeh-dXRlE1xvE8-54">
          <mxGeometry relative="1" as="geometry">
            <mxPoint x="990" y="285" as="targetPoint" />
          </mxGeometry>
        </mxCell>
      </root>
    </mxGraphModel>
  </diagram>
</mxfile>
